<svg width="16" height="14" fill="none" xmlns="http://www.w3.org/2000/svg">
    <path d="M8 0C3.528 0 .143 3.722 0 8v3.25c0 .416.336.75.722.75.386 0 .778-.334.778-.75V8c0-3.584 2.917-6.494 6.5-6.494 3.584 0 6.5 2.91 6.5 6.494v3.25c0 .416.334.75.75.75s.75-.334.75-.75V7.972C15.856 3.722 12.472 0 8 0ZM5 8h-.5c-1.104 0-2 .897-2 2.004v1.992c0 1.107.897 2.004 2 2.004H5a1 1 0 0 0 1-1.002V9.002A1 1 0 0 0 5 8Zm6.5 0H11a1 1 0 0 0-1 1.001v3.997c0 .553.448 1.002 1 1.002h.5c1.104 0 2-.897 2-2.004v-1.992A2.003 2.003 0 0 0 11.5 8Z" fill="#595959"/>
</svg>
